<?xml version="1.0" encoding="utf-8"?>
<!-- Generator: Adobe Illustrator 27.2.0, SVG Export Plug-In . SVG Version: 6.00 Build 0)  -->
<svg version="1.1" id="Layer_1" xmlns="http://www.w3.org/2000/svg" xmlns:xlink="http://www.w3.org/1999/xlink" x="0px" y="0px"
	 viewBox="0 0 512 448" style="enable-background:new 0 0 512 448;" xml:space="preserve">
<style type="text/css">
	.st0{fill:#FFFFFF;}
</style>
<g>
	<path class="st0" d="M201,420.2c-6.4,0-12.3-3.4-15.5-8.9c-6.3-10.8-13.4-35.8-25.5-89.1l0-0.2c-4.6-21.2-10.5-34.8-18.7-42.8
		c-7.5-7.3-18.2-10.9-34.7-11.5H82v134.6c0,9.9-8,17.9-17.9,17.9H18.7c-9.9,0-17.9-8-17.9-17.9V54.8c0-8.5,6-15.9,14.3-17.6
		c23.5-4.8,57.5-7.7,90.8-7.7c53.2,0,88.3,10.3,113.8,33.3c21.7,19.1,33.6,47.7,33.6,80.2c0,25.9-8,49.7-23.1,68.8
		c-7.2,9.1-15.8,17-25.8,23.6c15.9,15,27.2,37.2,33.8,66.1c10.2,43.4,19.1,80.3,25.5,92.1c3,5.5,2.8,12.3-0.4,17.7
		c-3.2,5.4-9.1,8.7-15.4,8.7H201z M110.6,197.3c38.5,0,61.5-18.3,61.5-49c0-16.3-4.9-27.6-15.3-35.4c-10.7-8-26.8-12.2-47.8-12.5
		c-11.8,0-20.8,0.6-26.9,1.3v95.5H110.6z"/>
</g>
<g>
	<path class="st0" d="M271.3,304.4c-18,0-33.4-6.1-44.6-17.5c-11.2-11.4-17.1-27.1-17.1-45.3c0-17.5,5.4-33.7,15.3-45.5
		c10.9-13.1,26.7-20.4,44.4-20.4c17.4,0,31.8,6.7,41.7,19.3c8.4,10.6,13,25,13,40.6c0,3.9-0.4,7-0.6,8.9l-0.1,0.7
		c-0.7,6.4-4.8,11.7-10.3,14.3c1.2,1.8,2.1,3.7,2.6,5.9l2.8,11.6c2,8.3-2.2,17-10.1,20.5C301.1,300.5,288.9,304.4,271.3,304.4z"/>
	<path class="st0" d="M344.9,304.4c-12.4,0-24.9-3.1-34.1-8.5c-7.2-4.2-10.5-13.1-7.9-21l4-12.3c1.7-5.3,5.9-9.5,11.1-11.3
		c0.6-0.2,1.1-0.4,1.7-0.5c-13.3-11.2-15.2-24.5-15.2-31c0-12.4,5-23.7,14.2-31.8c8.9-7.9,21.1-12.2,34.5-12.2c11.1,0,22.4,2.9,31,8
		c7.3,4.3,10.6,13.2,7.8,21.2l-4,11.8c-1.4,4.1-4.2,7.5-7.9,9.6c8.4,6.7,16,17.1,16,33.5C396.1,286.1,375,304.4,344.9,304.4z"/>
	<path class="st0" d="M426.4,304.4c-12.5,0-23.4-4.5-30.7-12.6c-9.8-10.5-11-25.2-11-35.3v-31.1c-7.9-1.9-13.8-9-13.8-17.4v-12.3
		c0-8.5,5.9-15.6,13.8-17.4v-3.9c0-8.1,5.5-15.2,13.3-17.3l15.8-4.2c1.5-0.4,3.1-0.6,4.6-0.6c3.9,0,7.8,1.3,10.9,3.7
		c4.4,3.4,7,8.7,7,14.2v7.6h5.3c9.9,0,17.9,8,17.9,17.9V208c0,9.9-8,17.9-17.9,17.9h-5.3v28.7c1.2-0.2,2.4-0.4,3.6-0.4
		c3.8,0,7.4,1.2,10.4,3.4c4.4,3.2,7.1,8.1,7.4,13.5l0.7,12.1c0.5,7.6-4,14.7-11.1,17.7C441.9,303.2,434.6,304.4,426.4,304.4z"/>
</g>
<g>
	<path class="st0" d="M281.7,422.2c-17.2,0-27.7-7.4-33.6-13.7c-7.5-8-11.6-18.6-11.6-29.8c0-6.7,1.7-23.1,16.2-35.5
		c-2.3-2-4.1-4.6-5.1-7.6l-3.7-10.7c-2.7-7.8,0.3-16.4,7.2-20.9c10.6-6.9,24.8-10.8,39-10.8c32.4,0,51.8,20.3,51.8,54.3v33.3
		c0,7.7,0.4,13.8,1.2,18.1c1,5.2-0.5,10.6-3.9,14.7s-8.4,6.4-13.8,6.4h-14.7c-2.9,0-5.8-0.7-8.4-2.1
		C295.9,420.8,288.8,422.2,281.7,422.2z"/>
	<path class="st0" d="M409.7,420.2c-9.9,0-17.9-8-17.9-17.9V351c0-5.8-1.1-7.9-1.4-8.3c-0.3,0-0.9,0-1.3,0c-2.5,0-4.1,2.4-4.6,3.9
		c-0.1,0.2-0.1,0.4-0.2,0.6c0,0.2-0.1,0.8-0.1,1.7v53.5c0,9.9-8,17.9-17.9,17.9h-16.2c-9.9,0-17.9-8-17.9-17.9v-64.9
		c0-9.6-0.2-16.4-0.7-22.8c-0.4-5,1.4-9.9,4.7-13.5c3.4-3.6,8.2-5.7,13.1-5.7h14.3c3.2,0,6.3,0.9,9,2.4c6.7-3,13.9-4.5,21.7-4.5
		c7,0,20.6,1.6,32.3,12.1c7.8,7,17.1,20.2,17.1,43.7v53.2c0,9.9-8,17.9-17.9,17.9H409.7z"/>
	<path class="st0" d="M478.8,422c-12.5,0-23.4-4.5-30.7-12.6c-9.8-10.5-11-25.2-11-35.3V343c-7.9-1.9-13.8-9-13.8-17.4v-12.3
		c0-8.5,5.9-15.6,13.8-17.4v-3.9c0-8.1,5.5-15.2,13.3-17.3l15.8-4.2c1.5-0.4,3.1-0.6,4.6-0.6c3.9,0,7.8,1.3,10.9,3.7
		c4.4,3.4,7,8.7,7,14.2v7.6h5.3c9.9,0,17.9,8,17.9,17.9v12.3c0,9.9-8,17.9-17.9,17.9h-5.3v28.7c1.2-0.2,2.4-0.4,3.6-0.4
		c3.8,0,7.4,1.2,10.4,3.4c4.4,3.2,7.1,8.1,7.4,13.5l0.7,12.1c0.5,7.6-4,14.7-11.1,17.7C494.3,420.8,487,422,478.8,422z"/>
</g>
<g>
	<path d="M18.7,54.9c23-4.7,55.9-7.3,87.2-7.3c48.6,0,79.9,8.9,101.9,28.7c17.8,15.7,27.7,39.7,27.7,66.9
		c0,46.5-29.3,77.3-66.3,89.9v1.6c27.2,9.4,43.4,34.5,51.7,71.1c11.5,49.1,19.9,83.1,27.2,96.6h-47c-5.7-9.9-13.6-40.2-23.5-84.1
		c-10.4-48.6-29.3-66.9-70.5-68.4H64.1v152.5H18.7V54.9z M64.1,215.2h46.5c48.6,0,79.4-26.6,79.4-66.9c0-45.5-32.9-65.3-81-65.8
		c-21.9,0-37.6,2.1-44.9,4.2V215.2z"/>
</g>
<g>
	<path d="M243,243.1c0.4,21.9,14.3,30.9,30.5,30.9c11.6,0,18.6-2,24.6-4.6l2.8,11.6c-5.7,2.6-15.4,5.5-29.6,5.5
		c-27.4,0-43.8-18-43.8-44.9c0-26.9,15.8-48,41.7-48c29.1,0,36.8,25.6,36.8,41.9c0,3.3-0.4,5.9-0.6,7.5H243z M290.4,231.5
		c0.2-10.3-4.2-26.3-22.4-26.3c-16.4,0-23.5,15.1-24.8,26.3H290.4z"/>
	<path d="M323.9,268.1c4.8,3.1,13.2,6.4,21.3,6.4c11.8,0,17.3-5.9,17.3-13.2c0-7.7-4.6-12-16.6-16.4c-16-5.7-23.5-14.5-23.5-25.2
		c0-14.3,11.6-26.1,30.7-26.1c9,0,16.9,2.6,21.9,5.5l-4,11.8c-3.5-2.2-9.9-5.1-18.2-5.1c-9.6,0-14.9,5.5-14.9,12.1
		c0,7.4,5.3,10.7,16.9,15.1c15.4,5.9,23.4,13.6,23.4,26.9c0,15.6-12.1,26.7-33.3,26.7c-9.7,0-18.8-2.4-25-6.1L323.9,268.1z"/>
	<path d="M418.4,170.1v25.6h23.2V208h-23.2v48c0,11,3.1,17.3,12.1,17.3c4.2,0,7.4-0.6,9.4-1.1l0.7,12.1c-3.1,1.3-8.1,2.2-14.3,2.2
		c-7.5,0-13.6-2.4-17.5-6.8c-4.6-4.8-6.3-12.7-6.3-23.2V208h-13.8v-12.3h13.8v-21.3L418.4,170.1z"/>
</g>
<g>
	<path d="M310.7,402.3l-1.3-11.2h-0.6c-5,7-14.5,13.2-27.2,13.2c-18,0-27.2-12.7-27.2-25.6c0-21.5,19.1-33.3,53.5-33.1v-1.8
		c0-7.4-2-20.6-20.2-20.6c-8.3,0-16.9,2.6-23.2,6.6l-3.7-10.7c7.4-4.8,18-7.9,29.2-7.9c27.2,0,33.8,18.6,33.8,36.4v33.3
		c0,7.7,0.4,15.3,1.5,21.3H310.7z M308.3,356.8c-17.7-0.4-37.7,2.8-37.7,20c0,10.5,7,15.4,15.3,15.4c11.6,0,18.9-7.4,21.5-14.9
		c0.6-1.7,0.9-3.5,0.9-5.1V356.8z"/>
	<path d="M350.1,337.3c0-9.2-0.2-16.7-0.7-24.1h14.3l0.9,14.7h0.4c4.4-8.5,14.7-16.7,29.4-16.7c12.3,0,31.4,7.4,31.4,37.9v53.2
		h-16.2V351c0-14.3-5.3-26.3-20.6-26.3c-10.7,0-18.9,7.5-21.7,16.6c-0.7,2-1.1,4.8-1.1,7.5v53.5h-16.2V337.3z"/>
	<path d="M470.9,287.7v25.6h23.2v12.3h-23.2v48c0,11,3.1,17.3,12.1,17.3c4.2,0,7.4-0.6,9.4-1.1l0.7,12.1c-3.1,1.3-8.1,2.2-14.3,2.2
		c-7.5,0-13.6-2.4-17.5-6.8c-4.6-4.8-6.3-12.7-6.3-23.2v-48.6h-13.8v-12.3h13.8v-21.3L470.9,287.7z"/>
</g>
</svg>
